Coordinates
version=1
nRows=31
nColumns=38
inDegrees=no

Units are S.I. units (second, meters, Newtons, ...)
If the header above contains a line with 'inDegrees', this indicates whether rotational values are in degrees (yes) or radians (no).

endheader
time	pelvis_tilt	pelvis_list	pelvis_rotation	pelvis_tx	pelvis_ty	pelvis_tz	hip_flexion_r	hip_adduction_r	hip_rotation_r	knee_angle_r	ankle_angle_r	subtalar_angle_r	mtp_angle_r	hip_flexion_l	hip_adduction_l	hip_rotation_l	knee_angle_l	ankle_angle_l	subtalar_angle_l	mtp_angle_l	lumbar_extension	lumbar_bending	lumbar_rotation	arm_flex_r	arm_add_r	arm_rot_r	elbow_flex_r	pro_sup_r	wrist_flex_r	wrist_dev_r	arm_flex_l	arm_add_l	arm_rot_l	elbow_flex_l	pro_sup_l	wrist_flex_l	wrist_dev_l
40	2.99582	1.31542	-1.38677	0.678183	0.414351	1.04773	-0.36162	0.0454435	-0.152823	0	-0.543308	0	0	-0.387262	-0.140026	-0.395872	0.115456	-0.34168	0	0	-0.351416	0.141181	-0.181885	0.225161	-0.409472	1.17099	0.551606	0.631097	0	0	-0.00897871	-0.0907687	-0.115203	0.374778	1.5708	0	0
40.01	2.99787	1.31299	-1.38882	0.678387	0.414616	1.04776	-0.364841	0.0456771	-0.153466	0	-0.543109	0	0	-0.390675	-0.139981	-0.39596	0.114692	-0.341637	0	0	-0.355554	0.140711	-0.181152	0.223938	-0.409372	1.16948	0.55179	0.633969	0	0	-0.00806896	-0.0911601	-0.116979	0.36573	1.5708	0	0
40.02	2.99969	1.31116	-1.3893	0.678588	0.415052	1.04776	-0.367785	0.0465443	-0.156344	0	-0.5429	0	0	-0.39326	-0.140593	-0.394752	0.114121	-0.341423	0	0	-0.358485	0.14038	-0.181732	0.221801	-0.408535	1.16666	0.550964	0.636574	0	0	-0.00759847	-0.0917519	-0.118393	0.356176	1.5708	0	0
40.03	3.00134	1.3093	-1.3912	0.678825	0.415293	1.04778	-0.370051	0.0466196	-0.156086	0	-0.542353	0	0	-0.395862	-0.140618	-0.395394	0.113838	-0.341437	0	0	-0.362273	0.139798	-0.180754	0.220001	-0.408231	1.16305	0.550764	0.639099	0	0	-0.006849	-0.0921693	-0.120125	0.347246	1.5708	0	0
40.04	3.0011	1.30699	-1.39214	0.679102	0.415519	1.04783	-0.37277	0.0469305	-0.154698	0	-0.542194	0	0	-0.399497	-0.140516	-0.395602	0.112391	-0.34157	0	0	-0.36683	0.139674	-0.178915	0.218248	-0.40845	1.15885	0.551306	0.642441	0	0	-0.00629742	-0.0924666	-0.121717	0.338878	1.5708	0	0
40.05	3.00184	1.30483	-1.39238	0.679348	0.415885	1.04788	-0.375687	0.047705	-0.156874	0	-0.542208	0	0	-0.402528	-0.141062	-0.394905	0.111611	-0.341544	0	0	-0.370821	0.139593	-0.178557	0.215581	-0.408055	1.15332	0.551346	0.646899	0	0	-0.00624705	-0.0930345	-0.123423	0.330994	1.5708	0	0
40.06	3.00219	1.30318	-1.39322	0.679619	0.416119	1.04788	-0.377263	0.047908	-0.157637	0	-0.542022	0	0	-0.404575	-0.14139	-0.3957	0.111966	-0.341153	0	0	-0.374859	0.139363	-0.177159	0.212841	-0.408019	1.14668	0.551839	0.652374	0	0	-0.0056901	-0.0932321	-0.126117	0.322927	1.5708	0	0
40.07	3.00193	1.30205	-1.39414	0.679893	0.416276	1.04787	-0.377757	0.0478018	-0.157467	0	-0.541659	0	0	-0.406072	-0.141448	-0.397214	0.112277	-0.340806	0	0	-0.378848	0.139157	-0.174883	0.209863	-0.408307	1.13884	0.552595	0.659249	0	0	-0.00474075	-0.0930978	-0.129779	0.314879	1.5708	0	0
40.08	3.00264	1.30134	-1.39461	0.680134	0.416564	1.04782	-0.378881	0.0481819	-0.158942	0	-0.541933	0	0	-0.406622	-0.142002	-0.398045	0.113458	-0.340128	0	0	-0.381887	0.138906	-0.17371	0.205754	-0.407908	1.12891	0.552652	0.667429	0	0	-0.00424027	-0.0933759	-0.13251	0.307403	1.5708	0	0
40.09	3.00273	1.30045	-1.39412	0.680382	0.416887	1.0478	-0.380256	0.0489589	-0.159926	0	-0.541851	0	0	-0.407347	-0.142941	-0.398601	0.114552	-0.339739	0	0	-0.384941	0.138957	-0.172904	0.201612	-0.407303	1.11906	0.552476	0.675375	0	0	-0.00428327	-0.0941309	-0.132035	0.300488	1.5708	0	0
40.1	3.00213	1.2991	-1.3943	0.680726	0.417133	1.04781	-0.381514	0.0493962	-0.159035	0	-0.54157	0	0	-0.409288	-0.143184	-0.398342	0.114187	-0.339743	0	0	-0.388943	0.13892	-0.171119	0.198145	-0.407129	1.11009	0.552935	0.682951	0	0	-0.00468055	-0.0949115	-0.129786	0.294428	1.5708	0	0
40.11	3.00081	1.29688	-1.39532	0.681167	0.417327	1.04789	-0.38334	0.0496514	-0.156498	0	-0.540854	0	0	-0.41336	-0.142508	-0.39626	0.111503	-0.339895	0	0	-0.394326	0.138772	-0.16691	0.193383	-0.407612	1.09661	0.554523	0.694137	0	0	-0.00400353	-0.0952275	-0.128548	0.288165	1.5708	0	0
40.12	2.99773	1.29461	-1.39475	0.681657	0.417724	1.04791	-0.385475	0.0505052	-0.154781	0	-0.540261	0	0	-0.417512	-0.142708	-0.396632	0.10965	-0.339445	0	0	-0.399153	0.138996	-0.162542	0.188251	-0.408139	1.0838	0.556079	0.705558	0	0	-0.00421761	-0.0955557	-0.128001	0.282648	1.5708	0	0
40.13	2.99707	1.29484	-1.39444	0.682005	0.417964	1.04786	-0.384483	0.0507859	-0.154887	0	-0.539752	0	0	-0.417263	-0.142924	-0.394559	0.110124	-0.338343	0	0	-0.402452	0.138833	-0.159636	0.181594	-0.407144	1.06425	0.556141	0.723743	0	0	-0.0035331	-0.0962698	-0.126078	0.277054	1.5708	0	0
40.14	2.99497	1.29507	-1.39312	0.682396	0.418287	1.04778	-0.383229	0.0513209	-0.154828	0	-0.538778	0	0	-0.416985	-0.143722	-0.395248	0.111227	-0.337077	0	0	-0.405725	0.138843	-0.154699	0.171172	-0.406012	1.03285	0.557116	0.751314	0	0	-0.00195399	-0.0969069	-0.121247	0.271153	1.5708	0	0
40.15	2.99334	1.29597	-1.39241	0.682815	0.418559	1.04765	-0.3814	0.0516401	-0.153861	0	-0.536027	0	0	-0.415472	-0.144478	-0.397027	0.113528	-0.334647	0	0	-0.409042	0.138325	-0.145582	0.154253	-0.404251	0.981885	0.559415	0.794924	0	0	0.00260001	-0.0984204	-0.104867	0.263331	1.5708	0	0
40.16	2.99151	1.29662	-1.39156	0.683265	0.418796	1.04751	-0.380118	0.0521595	-0.15192	0	-0.531956	0	0	-0.414009	-0.145448	-0.399176	0.116302	-0.331951	0	0	-0.412115	0.137939	-0.137609	0.14195	-0.402997	0.947247	0.560908	0.825201	0	0	0.00628088	-0.101127	-0.0807339	0.256274	1.5708	0	0
40.17	2.98971	1.29681	-1.39096	0.683741	0.419043	1.0474	-0.378784	0.0525728	-0.150706	0	-0.528778	0	0	-0.413492	-0.146172	-0.400149	0.117989	-0.330457	0	0	-0.415181	0.137731	-0.13321	0.136302	-0.401914	0.931671	0.560643	0.839511	0	0	0.0069181	-0.103625	-0.062981	0.252591	1.5708	0	0
40.18	2.98767	1.29691	-1.39019	0.684233	0.419325	1.0473	-0.376828	0.0529145	-0.150091	0.00240286	-0.525045	0	0	-0.413134	-0.146883	-0.400748	0.119568	-0.32909	0	0	-0.418137	0.137698	-0.129473	0.131442	-0.400646	0.917268	0.560057	0.852779	0	0	0.00650382	-0.106893	-0.0403534	0.250627	1.5708	0	0
40.19	2.98564	1.29631	-1.38925	0.684721	0.419599	1.04725	-0.375962	0.0535788	-0.149509	0.00502708	-0.527967	0	0	-0.413493	-0.147734	-0.401093	0.120965	-0.329535	0	0	-0.420646	0.138141	-0.131204	0.136352	-0.400637	0.933052	0.557355	0.839994	0	0	0.00440963	-0.104527	-0.0637467	0.24819	1.5708	0	0
40.2	2.98372	1.29598	-1.38855	0.685179	0.419809	1.04719	-0.374146	0.0540059	-0.148936	0.00896866	-0.529253	0	0	-0.413454	-0.14847	-0.401723	0.122534	-0.329399	0	0	-0.423078	0.138653	-0.133176	0.141881	-0.400409	0.949013	0.554147	0.828202	0	0	0.00228248	-0.102893	-0.08095	0.24612	1.5708	0	0
40.21	2.98267	1.29418	-1.38921	0.685625	0.419853	1.0471	-0.370729	0.0536321	-0.150278	0.0207722	-0.518205	0	0	-0.414526	-0.149411	-0.404616	0.125662	-0.325833	0	0	-0.418625	0.140802	-0.168833	0.219594	-0.403054	1.20191	0.535474	0.610135	0	0	-0.0185419	-0.0974895	-0.153481	0.250674	1.5708	0	0
40.22	2.9804	1.29488	-1.38884	0.686161	0.419985	1.04694	-0.366599	0.0535921	-0.149095	0.0274399	-0.513533	0	0	-0.412852	-0.150037	-0.405415	0.128574	-0.323466	0	0	-0.420479	0.141041	-0.167593	0.221671	-0.402276	1.20707	0.532626	0.609134	0	0	-0.0190015	-0.097588	-0.154164	0.248537	1.5708	0	0
40.23	2.97743	1.29548	-1.38732	0.686693	0.420176	1.04679	-0.362549	0.0539996	-0.149757	0.0341955	-0.508898	0	0	-0.410739	-0.151319	-0.406282	0.132666	-0.32078	0	0	-0.421998	0.141767	-0.167143	0.22457	-0.40088	1.21445	0.528433	0.609835	0	0	-0.0198139	-0.0977178	-0.154917	0.247018	1.5708	0	0
40.24	2.9731	1.2943	-1.38577	0.687339	0.420516	1.04671	-0.36101	0.054871	-0.148869	0.0395156	-0.505151	0	0	-0.411596	-0.152886	-0.410152	0.135427	-0.319	0	0	-0.424555	0.142907	-0.165373	0.227486	-0.399757	1.22185	0.524093	0.611546	0	0	-0.0209722	-0.0975604	-0.155656	0.245933	1.5708	0	0
40.25	2.9699	1.29701	-1.38397	0.687853	0.420367	1.04645	-0.352368	0.0544979	-0.14814	0.0506269	-0.497129	0	0	-0.405631	-0.154227	-0.40973	0.14165	-0.315087	0	0	-0.424628	0.143705	-0.165932	0.23303	-0.397329	1.23276	0.517409	0.612915	0	0	-0.0216964	-0.0976909	-0.156881	0.245589	1.5708	0	0
40.26	2.96448	1.29689	-1.38052	0.688459	0.420572	1.04632	-0.34817	0.0555303	-0.14823	0.0585483	-0.492456	0	0	-0.40391	-0.15659	-0.41163	0.146296	-0.312772	0	0	-0.426318	0.145456	-0.165398	0.237223	-0.396127	1.24048	0.512347	0.612982	0	0	-0.0231832	-0.0976096	-0.157728	0.245952	1.5708	0	0
40.27	2.96009	1.29639	-1.3781	0.689109	0.420741	1.0462	-0.343778	0.0563195	-0.148441	0.0677199	-0.487329	0	0	-0.402183	-0.15888	-0.413592	0.151716	-0.310387	0	0	-0.428426	0.14697	-0.164964	0.241455	-0.394709	1.24693	0.506972	0.610937	0	0	-0.0243976	-0.0975618	-0.158785	0.246188	1.5708	0	0
40.28	2.95722	1.29585	-1.37615	0.689773	0.420902	1.0462	-0.340691	0.0573675	-0.147019	0.0732867	-0.49839	0	0	-0.400651	-0.160689	-0.412321	0.155254	-0.313849	0	0	-0.435535	0.14745	-0.148645	0.206177	-0.393349	1.10868	0.509338	0.734595	0	0	-0.0157553	-0.0988454	-0.141062	0.243881	1.5708	0	0
40.29	2.95416	1.29588	-1.37465	0.690506	0.420804	1.04604	-0.333414	0.0576025	-0.145923	0.0871807	-0.491461	0	0	-0.396393	-0.163289	-0.414354	0.164014	-0.310742	0	0	-0.43759	0.148709	-0.150487	0.21386	-0.391202	1.12026	0.50246	0.720763	0	0	-0.0174062	-0.0990001	-0.14524	0.245719	1.5708	0	0
40.3	2.95069	1.29662	-1.37253	0.691214	0.420609	1.04581	-0.324758	0.0578494	-0.14454	0.101942	-0.483727	0	0	-0.390544	-0.166138	-0.416592	0.174194	-0.307039	0	0	-0.439477	0.150121	-0.152019	0.220925	-0.389308	1.12791	0.496305	0.704275	0	0	-0.0182555	-0.0990188	-0.149517	0.247339	1.5708	0	0
